# xmcd
#
# Track frame offsets:
#	187
#	11627
#	22405
#	34265
#	46112
#	58085
#	67682
#	77585
#	87382
#	100272
#	111005
#	124107
#	136862
#	147450
#	157852
#	168945
#	180457
#	190900
#	201195
#	213875
#	226765
#	237860
#	247822
#	257550
#	267290
#	277932
#	293125
#
# Disc length: 4065 seconds
#
# Revision: 0
# Processed by: cddbd v1.5.2PL0 Copyright (c) Steve Scherf et al.
# Submitted via: audiograbber 1.83.01
#
DISCID=6c0fdf1b
DTITLE=Patsy Cline - The Patsy Cline Collection  [CD2)  Moving Along
DYEAR=1991
DGENRE=Oldies
TTITLE0=Just Out Of Reach
TTITLE1=I Can See An Angel
TTITLE2=Let The Teardrops Fall
TTITLE3=Never No More
TTITLE4=If I Could Only Stay Asleep
TTITLE5=I'm Moving Along
TTITLE6=I'm Blue Again
TTITLE7=Love, Love, Love Me Honey Do
TTITLE8=Yes, I Understand
TTITLE9=Gotta Lot Of Rhythm In My Soul
TTITLE10=Life's Railway To Heaven
TTITLE11=Just A Closer Walk With Thee
TTITLE12=Lovesick Blues
TTITLE13=How Can I Face Tomorrow
TTITLE14=There He Goes
TTITLE15=Crazy Dreams
TTITLE16=When Your House Is Not A Home  (Radio Transcription)
TTITLE17=Stupid Cupid  (Radio Transcription)
TTITLE18=Loose Talk
TTITLE19=I Fall To Pieces
TTITLE20=Shoes
TTITLE21=Lovin' In Vain
TTITLE22=Side By Side  (Radio Transcription)
TTITLE23=True Love
TTITLE24=San Antonio Rose
TTITLE25=The Wayward Wind
TTITLE26=A Poor Man's Roses (Or A Rich Man's Gold)
EXTD=YEAR: 1991
EXTT0=YEAR: 1958
EXTT1=YEAR: 1958
EXTT2=YEAR: 1958
EXTT3=YEAR: 1958
EXTT4=YEAR: 1958
EXTT5=YEAR: 1959
EXTT6=YEAR: 1959
EXTT7=YEAR: 1959
EXTT8=YEAR: 1959
EXTT9=YEAR: 1959
EXTT10=YEAR: 1959
EXTT11=YEAR: 1959
EXTT12=YEAR: 1960
EXTT13=YEAR: 1960
EXTT14=YEAR: 1960
EXTT15=YEAR: 1960
EXTT16=Radio Transcription\nYEAR: 1960
EXTT17=Radio Transcription\nYEAR: 1960
EXTT18=Radio Transcription\nYEAR: 1960
EXTT19=YEAR: 1960
EXTT20=YEAR: 1960
EXTT21=YEAR: 1960
EXTT22=Radio Transcription\nYEAR: 1961
EXTT23=YEAR: 1961
EXTT24=YEAR: 1961
EXTT25=YEAR: 1961
EXTT26=YEAR: 1961
PLAYORDER=
